<svg width="450" height="300" style="overflow: hidden;"><defs id="defs"></defs><rect x="0" y="0" width="450" height="300" stroke="none" stroke-width="0" fill="#ffffff"></rect><g><rect x="290" y="15" width="135" height="29" stroke="none" stroke-width="0" fill-opacity="0" fill="#ffffff"></rect><g><rect x="290" y="15" width="135" height="11" stroke="none" stroke-width="0" fill-opacity="0" fill="#ffffff"></rect><g><text text-anchor="start" x="305" y="24.35" font-family="Arial" font-size="11" stroke="none" stroke-width="0" fill="#222222">Male</text></g><rect x="290" y="15" width="11" height="11" stroke="none" stroke-width="0" fill="#3366cc"></rect></g><g><rect x="290" y="33" width="135" height="11" stroke="none" stroke-width="0" fill-opacity="0" fill="#ffffff"></rect><g><text text-anchor="start" x="305" y="42.35" font-family="Arial" font-size="11" stroke="none" stroke-width="0" fill="#222222">Female</text></g><rect x="290" y="33" width="11" height="11" stroke="none" stroke-width="0" fill="#dc3912"></rect></g></g><g><path d="M149,150L149,27A123,123,0,0,1,265.97995150430387,188.00909030811852L149,150A0,0,0,0,0,149,150" stroke="#ffffff" stroke-width="1" fill="#3366cc"></path><text text-anchor="start" x="218.78022384228706" y="95.15973195678582" font-family="Arial" font-size="11" stroke="none" stroke-width="0" fill="#ffffff">30%</text></g><g><path d="M149,150L265.97995150430387,188.00909030811852A123,123,0,1,1,149,27L149,150A0,0,0,1,0,149,150" stroke="#ffffff" stroke-width="1" fill="#dc3912"></path><text text-anchor="start" x="57.21977615771296" y="212.54026804321418" font-family="Arial" font-size="11" stroke="none" stroke-width="0" fill="#ffffff">70%</text></g><g></g></svg>